<?xml version="1.0" encoding="UTF-8"?>
<svg version="1.1" xmlns="http://www.w3.org/2000/svg" width="246" height="211">
<path d="M0 0 C4.54492758 1.98840582 6.04204454 4.84941634 8 9.3125 C9.93307022 15.0715777 11.42523445 20.9203045 12.84375 26.82421875 C14.46095698 33.31331047 16.42678897 39.71003449 18.3125 46.125 C21.22637296 56.0513804 24.08602186 65.98033267 26.50317383 76.04223633 C26.94421527 77.81441358 27.46338483 79.56688438 28 81.3125 C28.66 81.6425 29.32 81.9725 30 82.3125 C30.12955078 81.38244141 30.12955078 81.38244141 30.26171875 80.43359375 C31.18152431 74.63628716 32.51398417 69.03761787 34.25 63.4375 C34.62640625 62.20257813 35.0028125 60.96765625 35.390625 59.6953125 C37.70844058 54.82339918 40.61241809 52.61839324 45.37109375 50.015625 C48.94058836 49.06093105 52.39697056 49.02218254 56.0625 49.0625 C57.12307617 49.05089844 57.12307617 49.05089844 58.20507812 49.0390625 C65.07146809 49.06485176 65.07146809 49.06485176 68 51.3125 C68.9375 54.75 68.9375 54.75 69 58.3125 C67.94140625 59.99609375 67.94140625 59.99609375 66 61.3125 C62.75 61.7890625 62.75 61.7890625 59 61.9375 C53.90968268 62.13082492 53.90968268 62.13082492 49 63.3125 C44.34729445 72.30389771 42.52065145 83.18779577 40 92.92578125 C36.74687535 105.11229119 36.74687535 105.11229119 33 110.3125 C30.0625 111.5 30.0625 111.5 27 111.3125 C23.69112267 109.81562692 22.35947003 108.21336533 21.01831055 104.85229492 C18.66763957 97.54618824 16.48215478 90.21001503 14.4375 82.8125 C14.14681641 81.77480469 13.85613281 80.73710937 13.55664062 79.66796875 C12.13604567 74.56399673 10.77348455 69.45325008 9.5078125 64.30859375 C7.97661081 58.11586875 6.23313157 51.99559364 4.4375 45.875 C4.13392578 44.82634766 3.83035156 43.77769531 3.51757812 42.69726562 C3.22173828 41.68470703 2.92589844 40.67214844 2.62109375 39.62890625 C2.22555298 38.27454468 2.22555298 38.27454468 1.82202148 36.89282227 C0.99858384 34.30805467 0.03858534 31.81768861 -1 29.3125 C-2.83110689 33.79871188 -4.22758469 38.16417557 -5.33691406 42.88769531 C-6.89762614 49.40935666 -8.46105179 55.06135725 -14 59.3125 C-18.56662695 61.97369446 -22.83630213 61.68012329 -28 61.6875 C-28.90234375 61.71199219 -29.8046875 61.73648438 -30.734375 61.76171875 C-37.32493052 61.79096678 -37.32493052 61.79096678 -40.62890625 59.44921875 C-42 57.3125 -42 57.3125 -41.9375 54.75 C-40.88145927 52.00429411 -40.39824208 51.00622831 -38 49.3125 C-34.56856514 48.99989047 -31.24461139 48.92421233 -27.8046875 48.9609375 C-25.4132911 48.95710665 -25.4132911 48.95710665 -22 48.3125 C-18.38714575 44.48256437 -17.47688486 38.55712631 -16.125 33.5625 C-15.59770469 31.68227808 -15.0703602 29.80206995 -14.54296875 27.921875 C-13.56704722 24.39573076 -12.61400645 20.86445751 -11.67578125 17.328125 C-11.26315506 15.82287987 -10.8504019 14.31766953 -10.4375 12.8125 C-10.26428223 12.12575195 -10.09106445 11.43900391 -9.91259766 10.73144531 C-8.40905621 5.31652689 -5.97170783 0.6220529 0 0 Z " fill="#539569" transform="translate(113,54.6875)"/>
<path d="M0 0 C0.99 0 1.98 0 3 0 C3.495 5.445 3.495 5.445 4 11 C4.66 11 5.32 11 6 11 C6.33951619 12.56116819 6.67132544 14.12401338 7 15.6875 C7.185625 16.55761719 7.37125 17.42773438 7.5625 18.32421875 C7.98972047 20.93712964 8.07616201 23.35813038 8 26 C6.3354745 23.50321175 5.55263843 21.97578432 4.7109375 19.20703125 C4.49179688 18.49482422 4.27265625 17.78261719 4.046875 17.04882812 C3.82515625 16.31083984 3.6034375 15.57285156 3.375 14.8125 C3.03082031 13.68811523 3.03082031 13.68811523 2.6796875 12.54101562 C2.11540619 10.69534551 1.55711784 8.84784504 1 7 C-0.83110689 11.48621188 -2.22758469 15.85167557 -3.33691406 20.57519531 C-4.89762614 27.09685666 -6.46105179 32.74885725 -12 37 C-16.56662695 39.66119446 -20.83630213 39.36762329 -26 39.375 C-26.90234375 39.39949219 -27.8046875 39.42398438 -28.734375 39.44921875 C-35.32493052 39.47846678 -35.32493052 39.47846678 -38.62890625 37.13671875 C-40 35 -40 35 -39.9375 32.4375 C-38.88145927 29.69179411 -38.39824208 28.69372831 -36 27 C-32.56856514 26.68739047 -29.24461139 26.61171233 -25.8046875 26.6484375 C-23.4132911 26.64460665 -23.4132911 26.64460665 -20 26 C-17.28934077 22.71751813 -16.22505637 19.05210952 -15 15 C-13.6519068 18.660329 -14.3663156 20.66550227 -15.875 24.1875 C-16.24367188 25.06792969 -16.61234375 25.94835937 -16.9921875 26.85546875 C-18 29 -18 29 -19 30 C-21.65463121 30.45459858 -24.32189138 30.70243238 -27 31 C-27 31.33 -27 31.66 -27 32 C-28.134375 32.12375 -29.26875 32.2475 -30.4375 32.375 C-31.613125 32.58125 -32.78875 32.7875 -34 33 C-34.33 33.66 -34.66 34.32 -35 35 C-31.37515001 35.08681476 -27.75056557 35.14032721 -24.125 35.1875 C-23.09246094 35.21263672 -22.05992188 35.23777344 -20.99609375 35.26367188 C-20.00996094 35.27333984 -19.02382812 35.28300781 -18.0078125 35.29296875 C-16.64100342 35.31653442 -16.64100342 35.31653442 -15.24658203 35.34057617 C-14.50520996 35.22818604 -13.76383789 35.1157959 -13 35 C-12.34 34.01 -11.68 33.02 -11 32 C-10.34 32 -9.68 32 -9 32 C-9 31.01 -9 30.02 -9 29 C-8.34 29 -7.68 29 -7 29 C-6.96261719 28.07058594 -6.92523438 27.14117187 -6.88671875 26.18359375 C-6.52506636 19.38311059 -6.092285 14.0608786 -3 8 C-2.59808167 6.71645435 -2.22269539 5.42428276 -1.875 4.125 C-1 1 -1 1 0 0 Z " fill="#598D6F" transform="translate(111,77)"/>
<path d="M0 0 C1.32 0.33 2.64 0.66 4 1 C3.6889315 3.06271639 3.37608484 5.12516466 3.0625 7.1875 C2.80146484 8.91033203 2.80146484 8.91033203 2.53515625 10.66796875 C2.08620687 13.46325212 1.57917838 16.22933586 1 19 C0.34 19 -0.32 19 -1 19 C-1 19.99 -1 20.98 -1 22 C-2.296875 24.203125 -2.296875 24.203125 -5 26 C-8.7796607 26.35482529 -12.47307765 26.05196207 -16.25 25.75 C-17.28125 25.68425781 -18.3125 25.61851563 -19.375 25.55078125 C-21.91854445 25.38592189 -24.45915488 25.20169465 -27 25 C-26 22 -26 22 -23 20 C-19.93336896 19.70185532 -16.89194029 19.62208663 -13.8125 19.5390625 C-10.87100298 19.27788176 -10.87100298 19.27788176 -9.25 16.9609375 C-8.8375 16.31382813 -8.425 15.66671875 -8 15 C-7.34 15 -6.68 15 -6 15 C-4.6258337 13.83406538 -4.6258337 13.83406538 -4.625 10.625 C-3.97841939 6.87483248 -3.67700131 6.34237615 -1 4 C-0.28552357 1.89667109 -0.28552357 1.89667109 0 0 Z " fill="#54986C" transform="translate(103,87)"/>
<path d="M0 0 C3.56894672 2.71572914 4.3640771 6.57052039 5.5625 10.6875 C5.77068359 11.37005859 5.97886719 12.05261719 6.19335938 12.75585938 C7.37412556 16.67570699 8.3975242 20.6141126 9.37231445 24.59057617 C10.87771818 30.36919516 12.62849311 36.08370809 14.3125 41.8125 C17.22637296 51.7388804 20.08602186 61.66783267 22.50317383 71.72973633 C22.94421527 73.50191358 23.46338483 75.25438438 24 77 C24.66 77.33 25.32 77.66 26 78 C26.33 75.69 26.66 73.38 27 71 C27.33 71 27.66 71 28 71 C28 73.64 28 76.28 28 79 C27.34 79 26.68 79 26 79 C26 80.32 26 81.64 26 83 C25.34 83 24.68 83 24 83 C20.02824615 76.97389071 18.5938861 70.98637501 17 64 C16.33847444 61.6652039 15.67258667 59.33163378 15 57 C14.50910617 55.03255937 14.02972531 53.06303637 13.5625 51.08984375 C13.11562484 49.4295784 12.5820271 47.79270777 12.01953125 46.16796875 C10.97266063 42.91504893 10.31647422 39.73210166 9.6875 36.375 C8.45474644 30.41878765 6.57998985 25.15969163 4.13671875 19.60546875 C1.33170752 13.17611311 0.52896738 6.91833647 0 0 Z " fill="#2A5C3B" transform="translate(117,59)"/>
<path d="M0 0 C0.99 0 1.98 0 3 0 C3.495 5.445 3.495 5.445 4 11 C4.66 11 5.32 11 6 11 C6.33951619 12.56116819 6.67132544 14.12401338 7 15.6875 C7.185625 16.55761719 7.37125 17.42773438 7.5625 18.32421875 C7.98972047 20.93712964 8.07616201 23.35813038 8 26 C6.3354745 23.50321175 5.55263843 21.97578432 4.7109375 19.20703125 C4.49179688 18.49482422 4.27265625 17.78261719 4.046875 17.04882812 C3.82515625 16.31083984 3.6034375 15.57285156 3.375 14.8125 C3.03082031 13.68811523 3.03082031 13.68811523 2.6796875 12.54101562 C2.11540619 10.69534551 1.55711784 8.84784504 1 7 C-0.83110689 11.48621188 -2.22758469 15.85167557 -3.33691406 20.57519531 C-4.89762614 27.09685666 -6.46105179 32.74885725 -12 37 C-15.05134675 38.80175155 -17.23646653 39.24055812 -20.765625 39.1953125 C-21.65507813 39.18886719 -22.54453125 39.18242188 -23.4609375 39.17578125 C-24.38132812 39.15902344 -25.30171875 39.14226562 -26.25 39.125 C-27.18585938 39.11597656 -28.12171875 39.10695312 -29.0859375 39.09765625 C-31.39088657 39.07413636 -33.6953116 39.04126853 -36 39 C-36 38.67 -36 38.34 -36 38 C-34.75863281 37.95101562 -33.51726562 37.90203125 -32.23828125 37.8515625 C-30.59633306 37.77650201 -28.95440703 37.70095561 -27.3125 37.625 C-26.49587891 37.5940625 -25.67925781 37.563125 -24.83789062 37.53125 C-18.68780219 37.23432157 -18.68780219 37.23432157 -13 35 C-12.34 34.01 -11.68 33.02 -11 32 C-10.34 32 -9.68 32 -9 32 C-9 31.01 -9 30.02 -9 29 C-8.34 29 -7.68 29 -7 29 C-6.96261719 28.07058594 -6.92523438 27.14117187 -6.88671875 26.18359375 C-6.52506636 19.38311059 -6.092285 14.0608786 -3 8 C-2.59808167 6.71645435 -2.22269539 5.42428276 -1.875 4.125 C-1 1 -1 1 0 0 Z " fill="#385240" transform="translate(111,77)"/>
<path d="M0 0 C5.61 0 11.22 0 17 0 C16.67 1.98 16.34 3.96 16 6 C12.39006828 7.13480527 9.0157673 7.10015767 5.25 7.0625 C4.07953125 7.05347656 2.9090625 7.04445313 1.703125 7.03515625 C0.81109375 7.02355469 -0.0809375 7.01195313 -1 7 C-1.33 6.01 -1.66 5.02 -2 4 C-1.34 2.68 -0.68 1.36 0 0 Z M-6 2 C-4.35 2 -2.7 2 -1 2 C-1.99 3.485 -1.99 3.485 -3 5 C-3.99 4.67 -4.98 4.34 -6 4 C-6 3.34 -6 2.68 -6 2 Z " fill="#57996F" transform="translate(162,107)"/>
<path d="M0 0 C1.71412679 5.14238037 -0.6907428 10.13422307 -2.12280273 15.23193359 C-2.68062148 17.22541815 -3.21912016 19.22340766 -3.75585938 21.22265625 C-7.18978478 33.76771662 -7.18978478 33.76771662 -11 39 C-14.125 40.0625 -14.125 40.0625 -17 40 C-17.66 39.34 -18.32 38.68 -19 38 C-17.88625 37.814375 -16.7725 37.62875 -15.625 37.4375 C-11.74610704 36.38667048 -11.74610704 36.38667048 -10.625 32.9375 C-10.29912531 30.88448945 -9.98808091 28.82396421 -9.84765625 26.75 C-9.50241568 21.76506294 -8.96878611 19.62694434 -5.34375 15.94921875 C-2.22669439 11.42767587 -1.29153768 5.26716486 0 0 Z " fill="#346545" transform="translate(157,126)"/>
<path d="M0 0 C0.71607422 -0.01224609 1.43214844 -0.02449219 2.16992188 -0.03710938 C9.16271876 -0.05655181 9.16271876 -0.05655181 12.0625 2.1875 C13 5.625 13 5.625 13.0625 9.1875 C12.00390625 10.87109375 12.00390625 10.87109375 10.0625 12.1875 C6.8125 12.6640625 6.8125 12.6640625 3.0625 12.8125 C-2.02781732 13.00582492 -2.02781732 13.00582492 -6.9375 14.1875 C-7.95504868 16.0528245 -7.95504868 16.0528245 -8.625 18.25 C-8.87636719 18.98347656 -9.12773437 19.71695313 -9.38671875 20.47265625 C-9.56847656 21.03855469 -9.75023437 21.60445312 -9.9375 22.1875 C-10.2675 22.1875 -10.5975 22.1875 -10.9375 22.1875 C-11.11504126 18.28159237 -11.14481737 15.49847606 -8.9375 12.1875 C-5.765762 10.601631 -2.30236178 10.80883555 1.1875 10.625 C2.31865234 10.56022461 2.31865234 10.56022461 3.47265625 10.49414062 C5.33571888 10.3880168 7.19908524 10.28724999 9.0625 10.1875 C10.06467064 6.60422247 10.06467064 6.60422247 9.0625 3.1875 C1.8025 3.1875 -5.4575 3.1875 -12.9375 3.1875 C-9.21961742 -0.53038258 -4.93965678 0.00442225 0 0 Z " fill="#31523E" transform="translate(168.9375,103.8125)"/>
<path d="M0 0 C2.3393848 3.65528875 2.29928196 6.73523211 2 11 C1.02515446 14.13343209 0.32377005 15.67622995 -2 18 C-2.12375 19.134375 -2.2475 20.26875 -2.375 21.4375 C-3 25 -3 25 -5.0625 26.9375 C-5.701875 27.288125 -6.34125 27.63875 -7 28 C-6.22634796 18.32934955 -3.10004816 9.1472273 0 0 Z " fill="#618A70" transform="translate(102,76)"/>
<path d="M0 0 C1.37095624 3.69037278 0.60010967 5.70883835 -0.9375 9.25 C-1.31777344 10.14203125 -1.69804688 11.0340625 -2.08984375 11.953125 C-2.39019531 12.62859375 -2.69054687 13.3040625 -3 14 C-4.93166016 14.09087891 -4.93166016 14.09087891 -6.90234375 14.18359375 C-8.58074159 14.26798247 -10.25912636 14.3526313 -11.9375 14.4375 C-13.21270508 14.49647461 -13.21270508 14.49647461 -14.51367188 14.55664062 C-15.32255859 14.59853516 -16.13144531 14.64042969 -16.96484375 14.68359375 C-17.7137085 14.72025146 -18.46257324 14.75690918 -19.23413086 14.79467773 C-21.02461326 14.81771063 -21.02461326 14.81771063 -22 16 C-22.19149081 19.63194641 -22.19149081 19.63194641 -21 23 C-21.99 22.67 -22.98 22.34 -24 22 C-24.75 19.8125 -24.75 19.8125 -25 17 C-23.51953125 14.35546875 -23.51953125 14.35546875 -21 12 C-18.14884643 11.59983809 -15.7743203 11.43361177 -12.9375 11.5 C-10.13923926 11.56513409 -7.80797972 11.40843341 -5 11 C-2.28796055 7.72019619 -1.22460061 4.05060201 0 0 Z " fill="#2F4D39" transform="translate(96,92)"/>
<path d="M0 0 C0.66 0 1.32 0 2 0 C2.33 1.65 2.66 3.3 3 5 C3.33 5 3.66 5 4 5 C4.11593506 5.69150146 4.23187012 6.38300293 4.35131836 7.09545898 C4.87590142 10.21018731 5.40661632 13.32383966 5.9375 16.4375 C6.11990234 17.52611328 6.30230469 18.61472656 6.49023438 19.73632812 C6.66748047 20.77080078 6.84472656 21.80527344 7.02734375 22.87109375 C7.27085571 24.30859985 7.27085571 24.30859985 7.51928711 25.77514648 C7.78152632 27.96213392 7.78152632 27.96213392 9 29 C9.04092937 31.33297433 9.04241723 33.66705225 9 36 C5.77542861 31.16314291 4.72932922 26.19552816 3.875 20.5 C3.70742187 19.4171875 3.53984375 18.334375 3.3671875 17.21875 C3.01283895 14.1125457 2.93415354 11.1230036 3 8 C2.34 8 1.68 8 1 8 C0.67 5.36 0.34 2.72 0 0 Z " fill="#568365" transform="translate(114,80)"/>
<path d="M0 0 C0.33 0 0.66 0 1 0 C0.72980587 6.07936783 0.03723846 10.17774296 -4 15 C-7.99485672 18.51927854 -10.27601533 20.13116446 -15.5703125 20.09765625 C-16.46621094 20.09443359 -17.36210938 20.09121094 -18.28515625 20.08789062 C-19.22230469 20.07951172 -20.15945312 20.07113281 -21.125 20.0625 C-22.06988281 20.05798828 -23.01476562 20.05347656 -23.98828125 20.04882812 C-26.32558387 20.03702357 -28.66276061 20.02055759 -31 20 C-31 19.67 -31 19.34 -31 19 C-29.75863281 18.95101562 -28.51726562 18.90203125 -27.23828125 18.8515625 C-25.59633306 18.77650201 -23.95440703 18.70095561 -22.3125 18.625 C-21.49587891 18.5940625 -20.67925781 18.563125 -19.83789062 18.53125 C-13.68780219 18.23432157 -13.68780219 18.23432157 -8 16 C-7.34 15.01 -6.68 14.02 -6 13 C-5.34 13 -4.68 13 -4 13 C-4 12.01 -4 11.02 -4 10 C-3.34 10 -2.68 10 -2 10 C-1.855625 8.72125 -1.71125 7.4425 -1.5625 6.125 C-1.29357254 3.74307106 -1.07773654 2.15547309 0 0 Z " fill="#2E523C" transform="translate(106,96)"/>
<path d="M0 0 C1.3303125 0.4021875 1.3303125 0.4021875 2.6875 0.8125 C3.0175 1.8025 3.3475 2.7925 3.6875 3.8125 C2.945 3.77125 2.2025 3.73 1.4375 3.6875 C-1.44782225 3.81865101 -2.93783337 4.20111907 -5.3125 5.8125 C-5.6425 6.8025 -5.9725 7.7925 -6.3125 8.8125 C-6.9725 8.8125 -7.6325 8.8125 -8.3125 8.8125 C-8.6425 9.8025 -8.9725 10.7925 -9.3125 11.8125 C-9.06468511 7.5996468 -8.63873116 5.25990273 -6.125 1.8125 C-3.3125 -0.1875 -3.3125 -0.1875 0 0 Z " fill="#466E52" transform="translate(113.3125,55.1875)"/>
<path d="M0 0 C0.66 0.33 1.32 0.66 2 1 C0.625 3 0.625 3 -1 5 C-1.66 5 -2.32 5 -3 5 C-2.938125 5.804375 -2.87625 6.60875 -2.8125 7.4375 C-3.05203628 11.98868928 -4.4388342 15.75330547 -6 20 C-6.33 20.99 -6.66 21.98 -7 23 C-7.66 23 -8.32 23 -9 23 C-8.35535007 14.45838846 -6.57293111 5.89772435 0 0 Z " fill="#364D3E" transform="translate(154,107)"/>
<path d="M0 0 C0.99 0 1.98 0 3 0 C3 0.66 3 1.32 3 2 C2.01 2 1.02 2 0 2 C-0.13277344 2.89203125 -0.26554687 3.7840625 -0.40234375 4.703125 C-0.57894531 5.87359375 -0.75554687 7.0440625 -0.9375 8.25 C-1.11152344 9.41015625 -1.28554687 10.5703125 -1.46484375 11.765625 C-1.8727736 14.23106961 -2.33901303 16.59424562 -3 19 C-3.66 19 -4.32 19 -5 19 C-5.33 19.66 -5.66 20.32 -6 21 C-6.37580094 15.8640538 -5.1173326 12.64184454 -3 8 C-2.60158375 6.71536298 -2.22552159 5.42352316 -1.875 4.125 C-1 1 -1 1 0 0 Z " fill="#39704C" transform="translate(111,77)"/>
<path d="M0 0 C0.33 0 0.66 0 1 0 C1.51635661 6.97081427 -0.2345768 11.66696977 -3 18 C-3.6872487 19.99302124 -4.36515933 21.98967123 -5 24 C-6.0950903 20.71472911 -5.91524701 19.84901711 -5.0390625 16.62109375 C-4.81476563 15.78255859 -4.59046875 14.94402344 -4.359375 14.08007812 C-4.11703125 13.20802734 -3.8746875 12.33597656 -3.625 11.4375 C-3.39039062 10.56158203 -3.15578125 9.68566406 -2.9140625 8.78320312 C-1.16584821 2.33169643 -1.16584821 2.33169643 0 0 Z " fill="#44584B" transform="translate(103,67)"/>
<path d="M0 0 C1.57043101 0.01330874 3.14079971 0.03717648 4.7109375 0.0703125 C5.51273438 0.07933594 6.31453125 0.08835937 7.140625 0.09765625 C9.12252273 0.12125027 11.10426731 0.15712185 13.0859375 0.1953125 C13.0859375 0.5253125 13.0859375 0.8553125 13.0859375 1.1953125 C10.4459375 1.5253125 7.8059375 1.8553125 5.0859375 2.1953125 C5.0859375 2.5253125 5.0859375 2.8553125 5.0859375 3.1953125 C2.1159375 3.1953125 -0.8540625 3.1953125 -3.9140625 3.1953125 C-4.5740625 4.5153125 -5.2340625 5.8353125 -5.9140625 7.1953125 C-6.0390625 4.8203125 -6.0390625 4.8203125 -5.9140625 2.1953125 C-3.9140625 0.1953125 -3.9140625 0.1953125 0 0 Z " fill="#538565" transform="translate(78.9140625,105.8046875)"/>
<path d="M0 0 C2.76223278 2.76223278 2.57856291 5.20706617 3 9 C4.423125 9.185625 4.423125 9.185625 5.875 9.375 C9 10 9 10 11 12 C10 13 10 13 7.125 13.375 C4 13 4 13 2.1875 11 C0.70557901 7.25619961 0.33975226 4.00907669 0 0 Z " fill="#578268" transform="translate(134,151)"/>
<path d="M0 0 C0.66 0 1.32 0 2 0 C1.125 4.875 1.125 4.875 0 6 C-1.34015221 6.15582303 -2.68758903 6.25044142 -4.03515625 6.31640625 C-4.84404297 6.35830078 -5.65292969 6.40019531 -6.48632812 6.44335938 C-7.7615332 6.50233398 -7.7615332 6.50233398 -9.0625 6.5625 C-9.91650391 6.60568359 -10.77050781 6.64886719 -11.65039062 6.69335938 C-13.76672037 6.79976702 -15.88333813 6.90041731 -18 7 C-17.67 6.34 -17.34 5.68 -17 5 C-14.1640625 4.65625 -14.1640625 4.65625 -10.625 4.5 C-5.48334655 4.33542866 -5.48334655 4.33542866 -1 2 C-0.67 1.34 -0.34 0.68 0 0 Z " fill="#57876B" transform="translate(178,109)"/>
<path d="M0 0 C3.91534054 3.74510834 4.191335 6.21659579 4.5625 11.625 C4.64628906 12.81351563 4.73007813 14.00203125 4.81640625 15.2265625 C4.87699219 16.14179687 4.93757813 17.05703125 5 18 C3 17 3 17 1.9375 14.0625 C0.71692488 9.44930271 0.36280279 4.74507865 0 0 Z " fill="#356948" transform="translate(117,59)"/>
<path d="M0 0 C1.19882813 0.00483398 1.19882813 0.00483398 2.421875 0.00976562 C3.246875 0.01814453 4.071875 0.02652344 4.921875 0.03515625 C5.76234375 0.03966797 6.6028125 0.04417969 7.46875 0.04882812 C9.53648901 0.06057664 11.60419124 0.07851103 13.671875 0.09765625 C13.671875 0.42765625 13.671875 0.75765625 13.671875 1.09765625 C12.58648437 1.14664063 11.50109375 1.195625 10.3828125 1.24609375 C8.93747716 1.32117611 7.49216581 1.39672153 6.046875 1.47265625 C5.33402344 1.50359375 4.62117187 1.53453125 3.88671875 1.56640625 C-0.52908409 1.80947797 -4.12029041 2.64450016 -8.328125 4.09765625 C-8.988125 3.76765625 -9.648125 3.43765625 -10.328125 3.09765625 C-7.24632667 0.01585792 -4.22346867 -0.03016763 0 0 Z " fill="#507C60" transform="translate(164.328125,105.90234375)"/>
<path d="M0 0 C0.33 0 0.66 0 1 0 C1 2.64 1 5.28 1 8 C0.34 8 -0.32 8 -1 8 C-1 9.32 -1 10.64 -1 12 C-1.66 12 -2.32 12 -3 12 C-4.85776765 8.86501708 -5.20140476 6.62528568 -5 3 C-3.68 4.32 -2.36 5.64 -1 7 C-0.67 4.69 -0.34 2.38 0 0 Z " fill="#2B4E33" transform="translate(144,130)"/>
<path d="M0 0 C0.99 0.495 0.99 0.495 2 1 C2.33333333 2.66666667 2.66666667 4.33333333 3 6 C3.66 6.33 4.32 6.66 5 7 C5 9.64 5 12.28 5 15 C3 14 3 14 2.1484375 11.6015625 C1.89320313 10.61929688 1.63796875 9.63703125 1.375 8.625 C1.11460937 7.64789063 0.85421875 6.67078125 0.5859375 5.6640625 C0 3 0 3 0 0 Z " fill="#578063" transform="translate(127,127)"/>
<path d="M0 0 C1.485 0.99 1.485 0.99 3 2 C3.51171875 5.0390625 3.51171875 5.0390625 3.6875 8.625 C3.75324219 9.81351563 3.81898437 11.00203125 3.88671875 12.2265625 C3.92410156 13.14179687 3.96148437 14.05703125 4 15 C0.89809455 10.34714182 -0.33846504 5.58467324 0 0 Z " fill="#598466" transform="translate(123,111)"/>
<path d="M0 0 C0.66 1.32 1.32 2.64 2 4 C2.66 4 3.32 4 4 4 C4 2.68 4 1.36 4 0 C4.66 0 5.32 0 6 0 C5.625 2.9375 5.625 2.9375 5 6 C4.01 6.495 4.01 6.495 3 7 C2.01 6.67 1.02 6.34 0 6 C0 4.02 0 2.04 0 0 Z " fill="#447E57" transform="translate(139,138)"/>
<path d="M0 0 C0.33 0 0.66 0 1 0 C1.42589023 5.53657294 -0.094753 9.89665983 -2 15 C-2.33 15 -2.66 15 -3 15 C-2.22095672 4.44191344 -2.22095672 4.44191344 0 0 Z " fill="#448058" transform="translate(157,120)"/>
<path d="M0 0 C0.99 0 1.98 0 3 0 C3.33 2.31 3.66 4.62 4 7 C3.34 7 2.68 7 2 7 C1.67 6.34 1.34 5.68 1 5 C0.01 5.495 0.01 5.495 -1 6 C-0.67 4.02 -0.34 2.04 0 0 Z " fill="#295437" transform="translate(111,79)"/>
<path d="M0 0 C3.26915556 4.90373335 4.22450809 7.05053549 4 13 C1.12420019 8.68630028 0 5.19265239 0 0 Z " fill="#385744" transform="translate(119,103)"/>
</svg>
