<?xml version="1.0" standalone="no"?>
<!DOCTYPE svg PUBLIC "-//W3C//DTD SVG 20010904//EN"
 "http://www.w3.org/TR/2001/REC-SVG-20010904/DTD/svg10.dtd">
<svg version="1.0" xmlns="http://www.w3.org/2000/svg"
 width="124.000000pt" height="124.000000pt" viewBox="0 0 124.000000 124.000000"
 preserveAspectRatio="xMidYMid meet">
<metadata>
Created by potrace 1.16, written by Peter Selinger 2001-2019
</metadata>
<g transform="translate(0.000000,124.000000) scale(0.100000,-0.100000)"
fill="#000000" stroke="none">
<path d="M0 620 l0 -620 620 0 620 0 0 620 0 620 -620 0 -620 0 0 -620z m526
409 c3 -6 51 -167 104 -358 54 -190 101 -339 104 -331 3 8 22 69 40 135 45
155 67 175 195 175 50 0 71 -13 71 -42 0 -26 -31 -38 -98 -38 -71 0 -63 14
-123 -205 -23 -82 -45 -157 -50 -166 -11 -22 -44 -30 -64 -15 -9 7 -54 148
-114 361 -55 193 -102 343 -105 335 -3 -8 -22 -69 -40 -135 -45 -155 -67 -175
-195 -175 -50 0 -71 13 -71 42 0 26 31 38 98 38 71 0 63 -14 123 205 23 83 45
158 50 168 11 19 64 24 75 6z"/>
</g>
</svg>
